<svg xmlns="http://www.w3.org/2000/svg" viewBox="0 0 360 80" role="img" aria-label="Funded by the European Union">
  <rect x="0" y="0" width="120" height="80" fill="#003399"/>
  <polygon points="60.00,4.44 58.00,10.59 51.55,10.59 56.77,14.38 54.78,20.52 60.00,16.73 65.22,20.52 63.23,14.38 68.45,10.59 62.00,10.59" fill="#FFCC00"/>
  <polygon points="46.67,8.02 44.67,14.16 38.21,14.16 43.44,17.96 41.44,24.10 46.67,20.30 51.89,24.10 49.90,17.96 55.12,14.16 48.66,14.16" fill="#FFCC00"/>
  <polygon points="36.91,17.78 34.91,23.92 28.45,23.92 33.68,27.72 31.68,33.86 36.91,30.06 42.13,33.86 40.14,27.72 45.36,23.92 38.90,23.92" fill="#FFCC00"/>
  <polygon points="33.33,31.11 31.34,37.25 24.88,37.25 30.10,41.05 28.11,47.19 33.33,43.40 38.56,47.19 36.56,41.05 41.79,37.25 35.33,37.25" fill="#FFCC00"/>
  <polygon points="36.91,44.44 34.91,50.59 28.45,50.59 33.68,54.38 31.68,60.52 36.91,56.73 42.13,60.52 40.14,54.38 45.36,50.59 38.90,50.59" fill="#FFCC00"/>
  <polygon points="46.67,54.21 44.67,60.35 38.21,60.35 43.44,64.14 41.44,70.29 46.67,66.49 51.89,70.29 49.90,64.14 55.12,60.35 48.66,60.35" fill="#FFCC00"/>
  <polygon points="60.00,57.78 58.00,63.92 51.55,63.92 56.77,67.72 54.78,73.86 60.00,70.06 65.22,73.86 63.23,67.72 68.45,63.92 62.00,63.92" fill="#FFCC00"/>
  <polygon points="73.33,54.21 71.34,60.35 64.88,60.35 70.10,64.14 68.11,70.29 73.33,66.49 78.56,70.29 76.56,64.14 81.79,60.35 75.33,60.35" fill="#FFCC00"/>
  <polygon points="83.09,44.44 81.10,50.59 74.64,50.59 79.86,54.38 77.87,60.52 83.09,56.73 88.32,60.52 86.32,54.38 91.55,50.59 85.09,50.59" fill="#FFCC00"/>
  <polygon points="86.67,31.11 84.67,37.25 78.21,37.25 83.44,41.05 81.44,47.19 86.67,43.40 91.89,47.19 89.90,41.05 95.12,37.25 88.66,37.25" fill="#FFCC00"/>
  <polygon points="83.09,17.78 81.10,23.92 74.64,23.92 79.86,27.72 77.87,33.86 83.09,30.06 88.32,33.86 86.32,27.72 91.55,23.92 85.09,23.92" fill="#FFCC00"/>
  <polygon points="73.33,8.02 71.34,14.16 64.88,14.16 70.10,17.96 68.11,24.10 73.33,20.30 78.56,24.10 76.56,17.96 81.79,14.16 75.33,14.16" fill="#FFCC00"/>
  <text x="136" y="36" font-family="Arial, Helvetica, sans-serif" font-size="20" font-weight="700" fill="#003399">Funded by</text>
  <text x="136" y="62" font-family="Arial, Helvetica, sans-serif" font-size="20" font-weight="700" fill="#003399">the European Union</text>
</svg>
